# xmcd CD database file
#
# Track frame offsets:
#	150
#	40235
#	66905
#	97820
#	139017
#	179787
#	210057
#	234100
#	254758
#	274673
#	297079
#
# Disc length: 4308 seconds
#
# Revision: 0
# Processed by: cddbd v1.5.2PL0 Copyright (c) Steve Scherf et al.
# Submitted via: CDex 1.70beta2
#
DISCID=9b10d20b
DTITLE=Edison,Harry - Swings Buck Clayton (And Vice Versa)
DYEAR=1958
DGENRE=Jazz
TTITLE0=Memories For The Count
TTITLE1=Come With Me
TTITLE2=Ctitic´s Delight
TTITLE3=Oh How I Hate To Get Up In The Afternoon
TTITLE4=It All Depends on You - Charmaine - How Long Has This Been Going On - Makin' Whoopee
TTITLE5=Memories For The Count (Alt. Take)
TTITLE6=Come With Me (Alt. Take)
TTITLE7=Femininity
TTITLE8=All The Time
TTITLE9=Life Does A Girl A Favor
TTITLE10=Newport Jump
EXTD=YEAR: 1958
EXTT0=
EXTT1=
EXTT2=
EXTT3=
EXTT4=
EXTT5=
EXTT6=
EXTT7=
EXTT8=
EXTT9=
EXTT10=
PLAYORDER=
